<?xml version="1.0" standalone="no"?>
<!DOCTYPE svg PUBLIC "-//W3C//DTD SVG 20010904//EN"
 "http://www.w3.org/TR/2001/REC-SVG-20010904/DTD/svg10.dtd">
<svg version="1.0" xmlns="http://www.w3.org/2000/svg"
 width="1024.000000pt" height="1024.000000pt" viewBox="0 0 1024.000000 1024.000000"
 preserveAspectRatio="xMidYMid meet">

<g transform="translate(0.000000,1024.000000) scale(0.100000,-0.100000)"
fill="#000000" stroke="none">
<path d="M2709 7663 c0 -37 -2 -182 -3 -320 l-3 -253 236 0 c173 0 253 -4 299
-15 132 -31 248 -114 320 -228 21 -34 82 -158 135 -274 l97 -213 -69 -153
c-131 -290 -594 -1353 -848 -1947 -139 -327 -264 -620 -278 -650 l-24 -55 411
-3 c226 -1 413 -1 415 1 3 4 81 195 507 1252 148 366 267 657 301 739 l17 40
16 -35 c21 -46 565 -1162 791 -1624 l181 -370 160 -3 c88 -1 160 -1 160 0 0 2
-57 113 -125 248 -240 468 -602 1198 -824 1659 l-224 464 16 41 c8 23 54 128
100 235 l85 193 -45 102 c-95 214 -226 495 -269 576 -158 297 -351 495 -578
589 -145 60 -175 64 -583 68 l-373 5 -1 -69z"/>
<path d="M6712 7618 c-279 -450 -1369 -2291 -1379 -2328 -5 -17 392 -820 405
-820 6 1 924 1600 997 1738 l30 57 3 -1357 2 -1358 380 0 380 0 0 2090 0 2090
-374 0 -375 0 -69 -112z"/>
<path d="M4536 6142 l-68 -138 122 -259 c67 -143 338 -695 603 -1227 l481
-968 143 0 c79 0 143 4 143 8 0 5 -236 484 -525 1065 -289 581 -525 1059 -525
1061 0 12 -293 596 -299 596 -3 0 -37 -62 -75 -138z"/>
</g>
</svg>
